# AST/ASF file generated using VICON BodyLanguage
# -----------------------------------------------
:version 1.10
:name VICON
:units
  mass 1.0
  length 0.45
  angle deg
:documentation
   .ast/.asf automatically generated from VICON data using
   VICON BodyBuilder and BodyLanguage model FoxedUp or BRILLIANT.MOD
:root
   order TX TY TZ RX RY RZ
   axis XYZ
   position 0 0 0  
   orientation 0 0 0 
:bonedata
  begin
     id 1 
     name lhipjoint
     direction 0.693937 -0.600361 0.397515 
     length 2.37164 
     axis 0 0 0  XYZ
  end
  begin
     id 2 
     name lfemur
     direction 0.34202 -0.939693 0  
     length 6.18497  
     axis 0 0 20  XYZ
    dof rx ry rz
    limits (-160.0 20.0)
           (-70.0 70.0)
           (-60.0 70.0)
  end
  begin
     id 3 
     name ltibia
     direction 0.34202 -0.939693 0   
     length 6.91601   
     axis 0 0 20   XYZ
    dof rx
    limits (-10.0 170.0)
  end
  begin
     id 4 
     name lfoot
     direction 0.0978718 -0.2689 0.958182   
     length 1.81453   
     axis -90 7.62852e-016 20   XYZ
    dof rx rz
    limits (-45.0 90.0)
           (-70.0 20.0)
  end
  begin
     id 5 
     name ltoes
     direction 1.53569e-011 -4.21951e-011 1   
     length 0.912052   
     axis -90 7.62852e-016 20   XYZ
    dof rx
    limits (-90.0 20.0)
  end
  begin
     id 6 
     name rhipjoint
     direction -0.643996 -0.637876 0.422354   
     length 2.23216  
     axis 0 0 0  XYZ 
  end
  begin
     id 7 
     name rfemur
     direction -0.34202 -0.939693 0   
     length 6.15404   
     axis 0 0 -20   XYZ
    dof rx ry rz
    limits (-160.0 20.0)
           (-70.0 70.0)
           (-70.0 60.0)
  end
  begin
     id 8 
     name rtibia
     direction -0.34202 -0.939693 0   
     length 6.86744   
     axis 0 0 -20   XYZ
    dof rx
    limits (-10.0 170.0)
 end
 begin
     id 9 
     name rfoot
     direction -0.118701 -0.326127 0.937844   
     length 1.9243  
     axis -90 -7.62852e-016 -20   XYZ
    dof rx rz
    limits (-45.0 90.0)
           (-20.0 70.0)
  end
  begin
     id 10 
     name rtoes
     direction -1.5356e-011 -4.2181e-011 1   
     length 0.958865   
     axis -90 -7.62852e-016 -20   XYZ
    dof rx
    limits (-90.0 20.0)
  end
  begin
     id 11 
     name lowerback
     direction 0.0310826 0.968686 -0.246334   
     length 2.00021   
     axis 0 0 0   XYZ
    dof rx ry rz
    limits (-20.0 45.0)
           (-30.0 30.0)
           (-30.0 30.0)
  end
  begin
     id 12 
     name upperback
     direction -0.0152834 0.999474 -0.0286152   
     length 2.03728   
     axis 0 0 0   XYZ
    dof rx ry rz
    limits (-20.0 45.0)
           (-30.0 30.0)
           (-30.0 30.0)
  end
  begin
     id 13 
     name thorax
     direction -0.0323701 0.996236 0.0804149   
     length 2.16   
     axis 0 0 0   XYZ
    dof rx ry rz
    limits (-20.0 45.0)
           (-30.0 30.0)
           (-30.0 30.0)
  end
  begin
     id 14 
     name lowerneck
     direction 0.0307935 0.982251 0.185027   
     length 1.43558   
     axis 0 0 0   XYZ
    dof rx ry rz
    limits (-20.0 45.0)
           (-30.0 30.0)
           (-30.0 30.0)
  end
  begin
     id 15 
     name upperneck
     direction -0.0927153 0.994775 0.0427454   
     length 1.44603   
     axis 0 0 0   XYZ
    dof rx ry rz
    limits (-20.0 45.0)
           (-30.0 30.0)
           (-30.0 30.0)
  end
  begin
     id 16
     name head
     direction -0.0341265 0.999406 -0.00472033  
     length 1.45931  
     axis 0 0 0   XYZ
    dof rx ry rz
    limits (-20.0 45.0)
           (-30.0 30.0)
           (-30.0 30.0)
  end
  begin
     id 17 
     name lclavicle
     direction 0.820755 0.555306 -0.134151  
     length 2.66075  
     axis 0 0 0   XYZ
    dof ry rz
    limits (-20.0 10.0)
           (0.0 20.0)
  end
  begin
     id 18 
     name lhumerus
     direction 1 -4.48971e-011 5.24853e-027   
     length 5.0546   
     axis -180 -30 -90   XYZ
    dof rx ry rz
    limits (-60.0 90.0)
           (-90.0 90.0)
           (-90.0 90.0)
  end
  begin
     id 19
     name lradius
     direction 1 -4.48971e-011 2.76575e-028   
     length 3.39013   
     axis -180 -30 -90   XYZ
    dof rx
    limits (-10.0 170.0)
  end
  begin
     id 20
     name lwrist
     direction 1 -4.48939e-011 -2.27826e-027   
     length 1.69507   
     axis 2.17013e-015 90 90   XYZ
    dof ry
    limits (-180.0 0.0)
 end
  begin
     id 21 
     name lhand
     direction 1 -4.49009e-011 -4.55652e-027   
     length 0.572425   
     axis 2.90745e-015 90 90   XYZ
    dof rx rz
    limits (-90.0 90.0)
           (-45.0 45.0)
  end
  begin
     id 22 
     name lfingers
     direction 1 -4.48955e-011 -9.11303e-027   
     length 0.461504   
     axis 5.81489e-015 90 90   XYZ
    dof rx
    limits (0.0 90.0)
  end
  begin
     id 23
     name lthumb
     direction 0.707107 -6.34929e-011 0.707107   
     length 0.66263   
     axis -90 45 2.85299e-015   XYZ
    dof rx rz
    limits (-45.0 45.0)
           (-45.0 45.0)
  end
  begin
     id 24 
     name rclavicle
     direction -0.754477 0.632921 -0.173712   
     length 2.73081  
     axis 0 0 0   XYZ 
    dof ry rz
    limits (-10.0 20.0)
           (-20.0 0.0)
  end
  begin
     id 25 
     name rhumerus
     direction -1 -4.48969e-011 5.1496e-027  
     length 5.0701   
     axis -180 30 90   XYZ
    dof rx ry rz
    limits (-90.0 60.0)
           (-90.0 90.0)
           (-90.0 90.0)
  end
  begin
     id 26 
     name rradius
     direction -1 -4.48967e-011 -7.15624e-028   
     length 3.14957   
     axis -180 30 90   XYZ
    dof rx
    limits (-10.0 170.0)
  end
  begin
     id 27 
     name rwrist
     direction -1 -4.48938e-011 -2.27826e-027   
     length 1.57479   
     axis 2.17013e-015 -90 -90   XYZ
    dof ry
    limits (-180.0 0.0)
  end
  begin
     id 28
     name rhand
     direction -1 -4.49008e-011 -4.55652e-027   
     length 0.718191   
     axis 2.90745e-015 -90 -90   XYZ
    dof rx rz
    limits (-90.0 90.0)
           (-45.0 45.0)
  end
  begin
     id 29
     name rfingers
     direction -1 -4.48953e-011 -9.11303e-027   
     length 0.579024   
     axis 5.81489e-015 -90 -90   XYZ
    dof rx
    limits (0.0 90.0)
  end
  begin
     id 30
     name rthumb
     direction -0.707107 -6.34937e-011 0.707107   
     length 0.831366   
     axis -90 -45 -2.85299e-015   XYZ
    dof rx rz
    limits (-45.0 45.0)
           (-45.0 45.0)
  end
:hierarchy
  begin
    root lhipjoint rhipjoint lowerback
    lhipjoint lfemur
    lfemur ltibia
    ltibia lfoot
    lfoot ltoes
    rhipjoint rfemur
    rfemur rtibia
    rtibia rfoot
    rfoot rtoes
    lowerback upperback
    upperback thorax
    thorax lowerneck lclavicle rclavicle
    lowerneck upperneck
    upperneck head
    lclavicle lhumerus
    lhumerus lradius
    lradius lwrist
    lwrist lhand lthumb
    lhand lfingers
    rclavicle rhumerus
    rhumerus rradius
    rradius rwrist
    rwrist rhand rthumb
    rhand rfingers
  end

#!OML:ASF H:\Male1\Project 1\Capture day 1\Session 1\Male1.ASF
:FULLY-SPECIFIED
:DEGREES
111
root 16.8876 15.4993 -0.969399 -255.088 -88.7958 252.035
lowerback 5.49315 0.866771 -1.88472
upperback 3.0151 0.984565 -1.32435
thorax 0.0120058 0.448992 -0.355164
lowerneck -7.505 1.25048 4.54331
upperneck 2.33273 1.28852 -1.44535
head 2.07804 0.644145 -1.19369
rclavicle -4.87022e-015 7.95139e-016
rhumerus -30.0615 14.8623 -86.7454
rradius 30.9752
rwrist -15.3311
rhand -14.6113 2.9415
rfingers 7.12502
rthumb 11.5396 -26.7208
lclavicle -4.87022e-015 7.95139e-016
lhumerus 56.6193 -33.5453 23.8837
lradius 77.2013
lwrist -17.9615
lhand -49.8214 -14.3251
lfingers 7.12502
lthumb -22.4177 14.394
rfemur -0.0916928 14.6628 23.103
rtibia 18.7228
rfoot -32.2009 -34.7147
rtoes -13.4941
lfemur -1.84446 -20.7691 -18.7106
ltibia 21.8028
lfoot -21.5829 27.7984
ltoes -4.5517
112
root 16.8902 15.5035 -0.983662 -260.988 -89.0885 258.082
lowerback 5.50764 0.770196 -2.3079
upperback 3.03562 0.833988 -1.35984
thorax 0.0211698 0.368075 -0.146579
lowerneck -7.7914 1.39001 4.22181
upperneck 2.31906 1.49259 -1.46621
head 2.12816 0.740611 -1.13514
rclavicle -5.1684e-015 9.54166e-015
rhumerus -29.4062 14.7909 -86.1839
rradius 30.6558
rwrist -14.8336
rhand -13.7909 2.73416
rfingers 7.12502
rthumb 12.3307 -26.8822
lclavicle -5.1684e-015 9.54166e-015
lhumerus 59.2777 -29.2532 24.137
lradius 75.6386
lwrist -17.4624
lhand -51.4687 -14.9992
lfingers 7.12502
lthumb -23.9981 13.5207
rfemur -0.343572 14.4311 22.7986
rtibia 18.8348
rfoot -32.3612 -34.5294
rtoes -12.8354
lfemur -2.04408 -21.0301 -18.8843
ltibia 21.7805
lfoot -21.563 27.793
ltoes -4.17281
113
root 16.8995 15.504 -1.00103 -244.684 -89.3659 241.98
lowerback 5.62075 0.742328 -2.82991
upperback 2.9676 0.764316 -1.41808
thorax -0.115899 0.329041 0.0878348
lowerneck -7.83838 1.42479 3.88903
upperneck 2.25359 1.56991 -1.47281
head 2.11271 0.774676 -1.07522
rclavicle -9.83984e-015 9.54166e-015
rhumerus -28.9397 14.5487 -85.6834
rradius 30.5705
rwrist -14.3946
rhand -13.279 2.78953
rfingers 7.12502
rthumb 12.8242 -26.7965
lclavicle -9.83984e-015 9.54166e-015
lhumerus 61.1816 -25.2846 24.9738
lradius 73.944
lwrist -16.3644
lhand -53.1049 -15.6829
lfingers 7.12502
lthumb -25.5662 12.6213
rfemur -0.763011 14.1786 22.4016
rtibia 19.1276
rfoot -32.8815 -33.7261
rtoes -12.0783
lfemur -2.17681 -21.0773 -19.0801
ltibia 21.5766
lfoot -21.4806 27.8321
ltoes -3.99793
114
root 16.9007 15.5059 -1.00921 -200.81 -89.0239 198.309
lowerback 5.54258 0.842769 -3.09968
upperback 2.99366 0.885267 -1.51009
thorax -0.0504403 0.384907 0.138527
lowerneck -8.02783 1.54939 3.70239
upperneck 2.0279 1.74593 -1.51585
head 2.07554 0.855784 -1.04786
rclavicle -8.44835e-015 2.78299e-014
rhumerus -28.5657 14.5663 -85.3455
rradius 30.9148
rwrist -14.6726
rhand -13.4079 2.83475
rfingers 7.12502
rthumb 12.6999 -26.7591
lclavicle -8.44835e-015 2.78299e-014
lhumerus 62.6079 -21.4341 26.0445
lradius 71.9964
lwrist -15.1258
lhand -53.5736 -14.3647
lfingers 7.12502
lthumb -26.0151 13.8744
rfemur -1.30272 13.8879 22.023
rtibia 19.491
rfoot -32.3681 -33.0549
rtoes -12.9727
lfemur -2.12403 -20.9496 -19.2756
ltibia 21.3232
lfoot -21.6282 28.1498
ltoes -3.75462
115
root 16.8995 15.5064 -1.0161 -191.477 -88.2235 189.012
lowerback 5.64794 0.945463 -3.12138
upperback 3.02201 1.01396 -1.52412
thorax -0.0831488 0.448001 0.127663
lowerneck -8.24225 1.6309 3.59566
upperneck 2.10686 1.86641 -1.71476
head 2.14597 0.908782 -1.08768
rclavicle -2.98177e-016 -7.95139e-016
rhumerus -28.3474 14.9182 -85.1588
rradius 31.5117
rwrist -15.4543
rhand -13.9869 2.77807
rfingers 7.12502
rthumb 12.1418 -26.8496
lclavicle -2.98177e-016 -7.95139e-016
lhumerus 63.4744 -17.7863 27.1532
lradius 70.0455
lwrist -13.2868
lhand -53.2583 -14.1532
lfingers 7.12502
lthumb -25.7131 14.1299
rfemur -1.6604 13.7855 21.9517
rtibia 19.8006
rfoot -31.4157 -32.71
rtoes -14.4271
lfemur -1.83425 -20.7251 -19.307
ltibia 21.0852
lfoot -21.9387 28.4873
ltoes -3.23266
116
root 16.8848 15.4996 -1.01714 -187.828 -86.9094 185.163
lowerback 5.80582 1.1677 -3.00939
upperback 3.07121 1.30546 -1.52813
thorax -0.125119 0.593297 0.0415968
lowerneck -8.33191 1.77984 3.69343
upperneck 2.16205 2.07132 -2.13223
head 2.19614 0.999554 -1.23059
rclavicle 6.36111e-015 -1.35174e-014
rhumerus -28.2932 15.2163 -85.0159
rradius 32.1856
rwrist -16.1865
rhand -14.5041 2.42882
rfingers 7.12502
rthumb 11.643 -27.2277
lclavicle 6.36111e-015 -1.35174e-014
lhumerus 63.7567 -14.4091 28.2718
lradius 68.2764
lwrist -11.0327
lhand -53.2764 -10.1868
lfingers 7.12502
lthumb -25.7305 18.0938
rfemur -1.72749 13.8393 21.9578
rtibia 20.0401
rfoot -30.0825 -32.2347
rtoes -16.521
lfemur -1.08997 -20.4912 -19.5186
ltibia 20.8577
lfoot -22.7834 29.1223
ltoes -1.58535
117
root 16.8847 15.504 -1.02564 -186.565 -85.9472 183.992
lowerback 5.89685 1.25561 -2.964
upperback 3.0102 1.42024 -1.48042
thorax -0.241288 0.652923 0.0557382
lowerneck -8.17478 1.98479 3.72603
upperneck 2.05356 2.35934 -2.42668
head 2.14719 1.135 -1.31894
rclavicle 1.11319e-014 -8.74653e-015
rhumerus -28.2777 15.3833 -84.8314
rradius 32.9661
rwrist -16.8221
rhand -15.1699 1.69486
rfingers 7.12502
rthumb 11.0009 -27.9969
lclavicle 1.11319e-014 -8.74653e-015
lhumerus 63.6295 -11.1551 29.2715
lradius 66.5724
lwrist -9.46004
lhand -52.7403 -8.35662
lfingers 7.12502
lthumb -25.2169 19.9973
rfemur -2.12544 13.9866 21.9491
rtibia 20.2553
rfoot -29.0049 -32.1047
rtoes -17.9937
lfemur -0.893221 -20.1708 -19.4846
ltibia 20.6476
lfoot -23.1639 29.5327
ltoes -0.366387
118
root 16.881 15.5107 -1.03416 -186.403 -84.9972 183.888
lowerback 5.96564 1.32625 -2.82445
upperback 2.9588 1.51895 -1.42305
thorax -0.332818 0.705161 0.0283623
lowerneck -7.38982 2.29458 3.62727
upperneck 1.39494 2.80188 -2.44426
head 1.80089 1.3557 -1.29089
rclavicle 1.46107e-014 5.56597e-015
rhumerus -28.3606 15.6427 -84.7602
rradius 33.8636
rwrist -17.5302
rhand -16.0261 1.63046
rfingers 7.12502
rthumb 10.175 -28.1035
lclavicle 1.46107e-014 5.56597e-015
lhumerus 63.1087 -8.13253 29.9691
lradius 64.5836
lwrist -9.26213
lhand -53.3238 -6.17237
lfingers 7.12502
lthumb -25.7759 22.1016
rfemur -2.50498 14.2665 22.0152
rtibia 20.5249
rfoot -28.1114 -32.0348
rtoes -18.8448
lfemur -0.648656 -19.7538 -19.4014
ltibia 20.4397
lfoot -23.6143 29.86
ltoes 0.763708
119
root 16.8664 15.5084 -1.03831 -183.819 -83.8378 181.279
lowerback 5.94763 1.4407 -2.84455
upperback 2.8916 1.66886 -1.46258
thorax -0.394521 0.78129 -0.0109683
lowerneck -7.21641 2.51915 4.29398
upperneck 1.43366 3.08311 -3.34779
head 1.82993 1.48034 -1.69162
rclavicle 3.65764e-014 -3.57812e-014
rhumerus -28.6115 16.1132 -84.884
rradius 34.7535
rwrist -18.3983
rhand -16.628 2.38206
rfingers 7.12502
rthumb 9.59424 -27.3795
lclavicle 3.65764e-014 -3.57812e-014
lhumerus 62.022 -5.47074 30.5241
lradius 62.4118
lwrist -9.34684
lhand -53.6035 -3.8915
lfingers 7.12502
lthumb -26.0437 24.3433
rfemur -2.75039 14.5714 21.7867
rtibia 20.7884
rfoot -27.5848 -31.3713
rtoes -19.2418
lfemur -0.213988 -19.2494 -19.7072
ltibia 20.2565
lfoot -24.3699 30.2832
ltoes 1.97046
120
root 16.8492 15.5001 -1.0414 -180.592 -82.712 178.026
lowerback 5.91365 1.49207 -3.02442
upperback 2.81206 1.72638 -1.51521
thorax -0.46212 0.810039 0.0314924
lowerneck -7.26889 2.73563 4.98492
upperneck 1.74904 3.35821 -4.44065
head 2.00322 1.59627 -2.16576
rclavicle 1.39646e-014 -8.74653e-015
rhumerus -28.893 16.5877 -85.0262
rradius 35.6519
rwrist -18.9866
rhand -16.7998 2.89085
rfingers 7.12502
rthumb 9.42851 -26.8783
lclavicle 1.39646e-014 -8.74653e-015
lhumerus 60.4603 -3.03277 30.7803
lradius 60.3166
lwrist -9.34269
lhand -53.6099 -1.28107
lfingers 7.12502
lthumb -26.0499 26.9528
rfemur -2.94835 14.8102 21.3412
rtibia 21.0185
rfoot -27.2568 -30.4683
rtoes -19.7808
lfemur 0.174738 -18.7135 -20.224
ltibia 20.1244
lfoot -25.1022 30.6754
ltoes 2.99507
121
root 16.8374 15.4975 -1.04672 -179.85 -81.9451 177.339
lowerback 5.96412 1.37574 -2.94622
upperback 2.7046 1.57497 -1.44902
thorax -0.597174 0.738502 0.0628115
lowerneck -7.30217 3.15396 5.64064
upperneck 1.71074 3.89325 -5.43046
head 2.07593 1.84155 -2.59482
rclavicle 1.66979e-014 -1.03368e-014
rhumerus -29.1824 16.9943 -85.1457
rradius 36.6898
rwrist -19.2848
rhand -16.8768 2.7771
rfingers 7.12502
rthumb 9.35425 -26.9954
lclavicle 1.66979e-014 -1.03368e-014
lhumerus 58.136 -0.755421 31.5363
lradius 59.3812
lwrist -9.53911
lhand -53.5413 0.127704
lfingers 7.12502
lthumb -25.9842 28.3713
rfemur -3.21136 14.951 21.1889
rtibia 21.2506
rfoot -26.9056 -29.9731
rtoes -20.5023
lfemur 0.34925 -18.1683 -20.3416
ltibia 20.0029
lfoot -25.3847 30.8408
ltoes 3.45359
122
root 16.817 15.4958 -1.05055 -180.563 -81.0695 178.088
lowerback 5.87699 1.28371 -2.60483
upperback 2.66779 1.4789 -1.33157
thorax -0.579378 0.694278 0.000356171
lowerneck -7.19654 3.42473 5.98294
upperneck 1.79504 4.25809 -6.05217
head 2.13994 2.01153 -2.85456
rclavicle -1.31198e-014 1.47101e-014
rhumerus -29.5216 17.5442 -85.3505
rradius 37.8982
rwrist -19.8926
rhand -16.9394 2.47537
rfingers 7.12502
rthumb 9.29385 -27.2998
lclavicle -1.31198e-014 1.47101e-014
lhumerus 55.4463 1.30984 32.0477
lradius 58.8963
lwrist -9.7109
lhand -53.2351 2.5278
lfingers 7.12502
lthumb -25.6909 30.8141
rfemur -3.43729 15.1888 21.2654
rtibia 21.4817
rfoot -26.4365 -29.5863
rtoes -21.3178
lfemur 0.63064 -17.6073 -20.2866
ltibia 19.8574
lfoot -25.6872 31.1146
ltoes 3.70624
123
root 16.7924 15.493 -1.05461 -180.548 -80.0609 178.068
lowerback 5.72631 1.23525 -2.32161
upperback 2.61852 1.43811 -1.26136
thorax -0.540693 0.67719 -0.080697
lowerneck -6.91453 3.77324 6.22187
upperneck 1.75917 4.73498 -6.49112
head 2.13329 2.24429 -3.02984
rclavicle -9.79014e-015 1.03368e-014
rhumerus -30.1193 18.3559 -85.7546
rradius 39.2368
rwrist -20.8549
rhand -16.8135 2.19936
rfingers 7.12502
rthumb 9.41527 -27.5703
lclavicle -9.79014e-015 1.03368e-014
lhumerus 52.2169 2.94644 32.2946
lradius 59.1202
lwrist -9.73314
lhand -53.1251 4.96092
lfingers 7.12502
lthumb -25.5856 33.2624
rfemur -3.60828 15.5538 21.2405
rtibia 21.6853
rfoot -25.9261 -29.1742
rtoes -22.1482
lfemur 1.02015 -17.0297 -20.3882
ltibia 19.6766
lfoot -26.2622 31.3788
ltoes 4.42135
124
root 16.7683 15.49 -1.0558 -179.95 -79.0767 177.428
lowerback 5.62016 1.17026 -2.13077
upperback 2.59913 1.36728 -1.19847
thorax -0.497774 0.643563 -0.116556
lowerneck -6.93623 4.22955 6.48242
upperneck 1.87883 5.34772 -6.99152
head 2.25189 2.53785 -3.22154
rclavicle -1.74931e-014 -2.46493e-014
rhumerus -30.815 19.3223 -86.2204
rradius 40.5905
rwrist -21.7665
rhand -16.8252 1.97892
rfingers 7.12502
rthumb 9.40401 -27.7913
lclavicle -1.74931e-014 -2.46493e-014
lhumerus 48.4728 4.32409 32.1773
lradius 59.9383
lwrist -9.54502
lhand -54.7534 8.97274
lfingers 7.12502
lthumb -27.1443 37.0407
rfemur -3.77087 15.8586 21.0749
rtibia 21.9394
rfoot -25.4454 -28.7091
rtoes -22.8568
lfemur 1.48657 -16.5113 -20.6457
ltibia 19.4046
lfoot -26.9574 31.5765
ltoes 5.56395
